{"title":"Jumbo 2 The Return Of Big Elephant DVDRIP 2011","uid":7092212,"size":822144654,"categoryP":"video","categoryS":"movies","magnet":"?xt=urn:btih:2b337c9c6bc6111b3f046cd5352d00cc4067b18f&amp;dn=Jumbo+2+The+Return+Of+Big+Elephant+DVDRIP+2011&amp;tr=udp%3A%2F%2Ftracker.openbittorrent.com%3A80&amp;tr=udp%3A%2F%2Fopen.demonii.com%3A1337&amp;tr=udp%3A%2F%2Ftracker.coppersurfer.tk%3A6969&amp;tr=udp%3A%2F%2Fexodus.desync.com%3A6969","seeders":5,"leechers":1,"uploader":"arsenal_rocks","files":2,"time":1331402293,"description":"\nGeneral\nComplete name                            : Jumbo 2 The Return Of Big Elephant DVDRIP 2011.avi\nFormat                                   : AVI\nFormat/Info                              : Audio Video Interleave\nFile size                                : 784 MiB\nDuration                                 : 1h 29mn\nOverall bit rate                         : 1 227 Kbps\nWriting application                      : Lavf52.93.0\n\nVideo\nID                                       : 0\nFormat                                   : MPEG-4 Visual\nFormat profile                           : Simple@L1\nFormat settings, BVOP                    : No\nFormat settings, QPel                    : No\nFormat settings, GMC                     : No warppoints\nFormat settings, Matrix                  : Default (H.263)\nCodec ID                                 : FMP4\nDuration                                 : 1h 29mn\nBit rate                                 : 1 085 Kbps\nWidth                                    : 640 pixels\nHeight                                   : 272 pixels\nDisplay aspect ratio                     : 2.35:1\nFrame rate                               : 29.970 fps\nColor space                              : YUV\nChroma subsampling                       : 4:2:0\nBit depth                                : 8 bits\nScan type                                : Progressive\nCompression mode                         : Lossy\nBits/(Pixel*Frame)                       : 0.208\nStream size                              : 694 MiB (88%)\nWriting library                          : Lavc52.108.0\n\nAudio\nID                                       : 1\nFormat                                   : MPEG Audio\nFormat version                           : Version 1\nFormat profile                           : Layer 2\nCodec ID                                 : 50\nDuration                                 : 1h 29mn\nBit rate mode                            : Constant\nBit rate                                 : 128 Kbps\nChannel(s)                               : 2 channels\nSampling rate                            : 48.0 KHz\nCompression mode                         : Lossy\nStream size                              : 81.5 MiB (10%)\nAlignment                                : Aligned on interleaves\nInterleave, duration                     : 24 ms (0.72 video frame)\nInterleave, preload duration             : 48 ms\n\n\n &lt;a href=&quot;\nhttp://i.minus.com/j1CBJ9EZUrpct.jpg&quot; rel=&quot;nofollow&quot; target=&quot;_NEW&quot;&gt;\nhttp://i.minus.com/j1CBJ9EZUrpct.jpg&lt;/a&gt;","torrent":{"xt":"urn:btih:2b337c9c6bc6111b3f046cd5352d00cc4067b18f","amp;dn":"Jumbo+2+The+Return+Of+Big+Elephant+DVDRIP+2011","amp;tr":["udp%3A%2F%2Ftracker.openbittorrent.com%3A80","udp%3A%2F%2Fopen.demonii.com%3A1337","udp%3A%2F%2Ftracker.coppersurfer.tk%3A6969","udp%3A%2F%2Fexodus.desync.com%3A6969"],"infoHash":"2b337c9c6bc6111b3f046cd5352d00cc4067b18f","infoHashBuffer":{"type":"Buffer","data":[43,51,124,156,107,198,17,27,63,4,108,213,53,45,0,204,64,103,177,143]},"announce":[],"urlList":[]}}